<svg width="854" height="292" viewBox="0 0 854 292" fill="none" xmlns="http://www.w3.org/2000/svg">
<path d="M196.179 0.871994H245.375V14.592H210.389V29.978H241.357V43.698H210.389V59.28H246.747V73H196.179V0.871994ZM255.569 0.871994H273.699L320.739 73H302.413L255.569 0.871994ZM254.589 73L280.265 32.624L286.929 46.932L272.229 73H254.589ZM287.909 27.332L302.805 0.871994H320.053L295.259 39.582L287.909 27.332ZM354.314 0.871994C360.26 0.871994 365.29 1.88466 369.406 3.91C373.522 5.87 376.658 8.67933 378.814 12.338C380.97 15.9313 382.048 20.2107 382.048 25.176C382.048 28.116 381.591 31.0887 380.676 34.094C379.827 37.034 378.422 39.7127 376.462 42.13C374.568 44.5473 371.987 46.5073 368.72 48.01C365.519 49.4473 361.566 50.166 356.862 50.166H346.67V73H332.46V0.871994H354.314ZM356.764 36.348C358.92 36.348 360.717 35.9887 362.154 35.27C363.592 34.486 364.702 33.5387 365.486 32.428C366.336 31.252 366.924 30.0433 367.25 28.802C367.642 27.5607 367.838 26.4827 367.838 25.568C367.838 24.8493 367.708 23.902 367.446 22.726C367.25 21.4847 366.793 20.2433 366.074 19.002C365.356 17.7607 364.245 16.7153 362.742 15.866C361.305 15.0167 359.345 14.592 356.862 14.592H346.67V36.348H356.764ZM394.763 0.871994H408.973V59.28H442.881V73H394.763V0.871994ZM451.125 37.034C451.125 32.0687 452.072 27.3647 453.967 22.922C455.861 18.4793 458.475 14.5593 461.807 11.162C465.204 7.69933 469.124 4.988 473.567 3.028C478.009 1.068 482.779 0.0879983 487.875 0.0879983C492.905 0.0879983 497.642 1.068 502.085 3.028C506.527 4.988 510.447 7.69933 513.845 11.162C517.307 14.5593 519.986 18.4793 521.881 22.922C523.841 27.3647 524.821 32.0687 524.821 37.034C524.821 42.13 523.841 46.8993 521.881 51.342C519.986 55.7847 517.307 59.7047 513.845 63.102C510.447 66.434 506.527 69.0473 502.085 70.942C497.642 72.8367 492.905 73.784 487.875 73.784C482.779 73.784 478.009 72.8367 473.567 70.942C469.124 69.0473 465.204 66.434 461.807 63.102C458.475 59.7047 455.861 55.7847 453.967 51.342C452.072 46.8993 451.125 42.13 451.125 37.034ZM465.825 37.034C465.825 40.2353 466.38 43.2407 467.491 46.05C468.667 48.794 470.267 51.244 472.293 53.4C474.383 55.4907 476.768 57.124 479.447 58.3C482.191 59.476 485.163 60.064 488.365 60.064C491.435 60.064 494.277 59.476 496.891 58.3C499.569 57.124 501.889 55.4907 503.849 53.4C505.809 51.244 507.344 48.794 508.455 46.05C509.565 43.2407 510.121 40.2353 510.121 37.034C510.121 33.7673 509.533 30.7293 508.357 27.92C507.246 25.1107 505.678 22.6607 503.653 20.57C501.693 18.414 499.373 16.748 496.695 15.572C494.016 14.396 491.109 13.808 487.973 13.808C484.837 13.808 481.929 14.396 479.251 15.572C476.572 16.748 474.22 18.414 472.195 20.57C470.169 22.6607 468.601 25.1107 467.491 27.92C466.38 30.7293 465.825 33.7673 465.825 37.034ZM560.842 0.871994C565.35 0.871994 569.368 1.45999 572.896 2.63599C576.424 3.74666 579.364 5.38 581.716 7.536C584.133 9.62666 585.962 12.1747 587.204 15.18C588.445 18.12 589.066 21.452 589.066 25.176C589.066 28.116 588.608 31.056 587.694 33.996C586.844 36.936 585.407 39.6147 583.382 42.032C581.422 44.4493 578.808 46.4093 575.542 47.912C572.275 49.3493 568.224 50.068 563.39 50.068H553.198V73H538.988V0.871994H560.842ZM563.292 36.348C565.448 36.348 567.244 35.9887 568.682 35.27C570.119 34.5513 571.23 33.6367 572.014 32.526C572.863 31.4153 573.451 30.272 573.778 29.096C574.17 27.8547 574.366 26.7113 574.366 25.666C574.366 24.882 574.235 23.902 573.974 22.726C573.778 21.4847 573.32 20.2433 572.602 19.002C571.883 17.7607 570.772 16.7153 569.27 15.866C567.832 15.0167 565.872 14.592 563.39 14.592H553.198V36.348H563.292ZM576.62 45.168L594.456 73H577.894L559.666 45.56L576.62 45.168ZM606.171 0.871994H655.367V14.592H620.381V29.978H651.349V43.698H620.381V59.28H656.739V73H606.171V0.871994Z" fill="url(#paint0_linear_76_150)"/>
<path d="M22.5595 108.872C27.0675 108.872 31.0855 109.46 34.6135 110.636C38.1415 111.747 41.0815 113.38 43.4335 115.536C45.8508 117.627 47.6802 120.175 48.9215 123.18C50.1628 126.12 50.7835 129.452 50.7835 133.176C50.7835 136.116 50.3262 139.056 49.4115 141.996C48.5622 144.936 47.1248 147.615 45.0995 150.032C43.1395 152.449 40.5262 154.409 37.2595 155.912C33.9928 157.349 29.9422 158.068 25.1075 158.068H14.9155V181H0.705508V108.872H22.5595ZM25.0095 144.348C27.1655 144.348 28.9622 143.989 30.3995 143.27C31.8368 142.551 32.9475 141.637 33.7315 140.526C34.5808 139.415 35.1688 138.272 35.4955 137.096C35.8875 135.855 36.0835 134.711 36.0835 133.666C36.0835 132.882 35.9528 131.902 35.6915 130.726C35.4955 129.485 35.0382 128.243 34.3195 127.002C33.6008 125.761 32.4902 124.715 30.9875 123.866C29.5502 123.017 27.5902 122.592 25.1075 122.592H14.9155V144.348H25.0095ZM38.3375 153.168L56.1735 181H39.6115L21.3835 153.56L38.3375 153.168ZM67.8891 108.872H117.085V122.592H82.0991V137.978H113.067V151.698H82.0991V167.28H118.457V181H67.8891V108.872ZM125.025 181L157.561 106.03H158.345L190.881 181H174.417L153.641 128.276L163.931 121.22L139.039 181H125.025ZM147.271 154.932H168.929L173.927 166.888H142.861L147.271 154.932ZM201.395 108.872H215.605V167.28H249.513V181H201.395V108.872ZM317.213 108.872C324.727 108.872 330.705 110.407 335.147 113.478C339.59 116.483 341.811 120.991 341.811 127.002C341.811 131.445 340.701 135.169 338.479 138.174C336.323 141.114 333.351 143.335 329.561 144.838C325.837 146.275 321.558 146.994 316.723 146.994L314.469 139.35C320.415 139.35 325.674 140.167 330.247 141.8C334.886 143.433 338.545 145.785 341.223 148.856C343.902 151.861 345.241 155.487 345.241 159.734C345.241 163.654 344.523 166.986 343.085 169.73C341.713 172.409 339.819 174.597 337.401 176.296C335.049 177.929 332.371 179.138 329.365 179.922C326.36 180.641 323.257 181 320.055 181H296.045V108.872H317.213ZM318.879 138.37C321.689 138.37 323.747 137.521 325.053 135.822C326.425 134.123 327.111 132.196 327.111 130.04C327.111 127.557 326.262 125.695 324.563 124.454C322.93 123.213 320.709 122.592 317.899 122.592H310.255V138.37H318.879ZM319.369 167.77C321.46 167.77 323.355 167.509 325.053 166.986C326.752 166.398 328.091 165.516 329.071 164.34C330.051 163.099 330.541 161.563 330.541 159.734C330.541 157.643 329.953 156.075 328.777 155.03C327.601 153.919 326.066 153.168 324.171 152.776C322.342 152.319 320.415 152.09 318.389 152.09H310.255V167.77H319.369ZM359.497 108.872H408.693V122.592H373.707V137.978H404.675V151.698H373.707V167.28H410.065V181H359.497V108.872ZM416.632 181L449.168 106.03H449.952L482.488 181H466.024L445.248 128.276L455.538 121.22L430.646 181H416.632ZM438.878 154.932H460.536L465.534 166.888H434.468L438.878 154.932ZM503.35 154.344C503.35 156.631 504.036 158.819 505.408 160.91C506.78 163.001 508.576 164.699 510.798 166.006C513.084 167.313 515.567 167.966 518.246 167.966C521.186 167.966 523.799 167.313 526.086 166.006C528.372 164.699 530.169 163.001 531.476 160.91C532.848 158.819 533.534 156.631 533.534 154.344V108.872H547.548V154.638C547.548 159.93 546.241 164.634 543.628 168.75C541.014 172.801 537.486 176.002 533.044 178.354C528.601 180.641 523.668 181.784 518.246 181.784C512.888 181.784 507.988 180.641 503.546 178.354C499.168 176.002 495.673 172.801 493.06 168.75C490.446 164.634 489.14 159.93 489.14 154.638V108.872H503.35V154.344ZM559.784 108.872H608.392V122.592H590.85V181H576.64V122.592H559.784V108.872ZM640.824 158.558L614.266 108.872H631.808L650.428 146.308L646.214 146.602L664.54 108.872H682.082L655.034 158.558V181H640.824V158.558ZM720.29 145.034C720.29 140.069 721.237 135.365 723.132 130.922C725.026 126.479 727.64 122.559 730.972 119.162C734.369 115.699 738.289 112.988 742.732 111.028C747.174 109.068 751.944 108.088 757.04 108.088C762.07 108.088 766.807 109.068 771.25 111.028C775.692 112.988 779.612 115.699 783.01 119.162C786.472 122.559 789.151 126.479 791.046 130.922C793.006 135.365 793.986 140.069 793.986 145.034C793.986 150.13 793.006 154.899 791.046 159.342C789.151 163.785 786.472 167.705 783.01 171.102C779.612 174.434 775.692 177.047 771.25 178.942C766.807 180.837 762.07 181.784 757.04 181.784C751.944 181.784 747.174 180.837 742.732 178.942C738.289 177.047 734.369 174.434 730.972 171.102C727.64 167.705 725.026 163.785 723.132 159.342C721.237 154.899 720.29 150.13 720.29 145.034ZM734.99 145.034C734.99 148.235 735.545 151.241 736.656 154.05C737.832 156.794 739.432 159.244 741.458 161.4C743.548 163.491 745.933 165.124 748.612 166.3C751.356 167.476 754.328 168.064 757.53 168.064C760.6 168.064 763.442 167.476 766.056 166.3C768.734 165.124 771.054 163.491 773.014 161.4C774.974 159.244 776.509 156.794 777.62 154.05C778.73 151.241 779.286 148.235 779.286 145.034C779.286 141.767 778.698 138.729 777.522 135.92C776.411 133.111 774.843 130.661 772.818 128.57C770.858 126.414 768.538 124.748 765.86 123.572C763.181 122.396 760.274 121.808 757.138 121.808C754.002 121.808 751.094 122.396 748.416 123.572C745.737 124.748 743.385 126.414 741.36 128.57C739.334 130.661 737.766 133.111 736.656 135.92C735.545 138.729 734.99 141.767 734.99 145.034ZM808.153 108.872H853.233V122.592H822.363V138.958H849.117V152.678H822.363V181H808.153V108.872Z" fill="white"/>
<path d="M287.289 216.872H301.499V289H287.289V216.872ZM384.697 291.94L330.013 242.548L334.227 244.9L334.521 289H320.115V214.03H320.703L374.211 263.226L371.075 261.854L370.781 216.872H385.089V291.94H384.697ZM403.664 289V216.872H425.224C432.476 216.872 438.65 217.95 443.746 220.106C448.842 222.262 452.925 225.137 455.996 228.73C459.132 232.323 461.418 236.341 462.856 240.784C464.293 245.227 465.012 249.702 465.012 254.21C465.012 259.567 464.032 264.402 462.072 268.714C460.177 272.961 457.564 276.619 454.232 279.69C450.9 282.695 447.045 285.015 442.668 286.648C438.29 288.216 433.652 289 428.752 289H403.664ZM417.874 275.28H426.302C429.895 275.28 433.162 274.823 436.102 273.908C439.042 272.928 441.557 271.523 443.648 269.694C445.804 267.865 447.437 265.578 448.548 262.834C449.724 260.025 450.312 256.823 450.312 253.23C450.312 248.526 449.528 244.704 447.96 241.764C446.457 238.759 444.562 236.439 442.276 234.806C440.054 233.173 437.768 232.062 435.416 231.474C433.064 230.821 431.071 230.494 429.438 230.494H417.874V275.28ZM479.269 216.872H493.479V289H479.269V216.872ZM503.961 289L536.497 214.03H537.281L569.817 289H553.353L532.577 236.276L542.867 229.22L517.975 289H503.961ZM526.207 262.932H547.865L552.863 274.888H521.797L526.207 262.932Z" fill="url(#paint1_linear_76_150)"/>
<defs>
<linearGradient id="paint0_linear_76_150" x1="424.5" y1="-1" x2="424.5" y2="306" gradientUnits="userSpaceOnUse">
<stop offset="0.0572917" stop-color="#37DEE8"/>
<stop offset="0.953125" stop-color="#174245" stop-opacity="0"/>
</linearGradient>
<linearGradient id="paint1_linear_76_150" x1="424.5" y1="-1" x2="424.5" y2="306" gradientUnits="userSpaceOnUse">
<stop offset="0.796875" stop-color="#E6AA0D"/>
<stop offset="1" stop-color="#916901"/>
</linearGradient>
</defs>
</svg>
